<svg viewBox="0 0 2000.16 2000.16" xmlns="http://www.w3.org/2000/svg"><path d="M1269.237 82.865c4.497 14.91 7.618 29.893 11.384 44.701q5.673 22.307 11.158 44.661l10.975 44.703 11.14 44.81c164.932 70.657 293.438 182.879 383.015 338.111 89.394 154.915 122.299 321.979 101.148 499.953 1.95 2.062 3.815 4.201 5.851 6.161q59.813 57.572 119.655 115.113c2.284 2.197 4.471 4.495 6.4 6.441a12.26 12.26 0 0 1 .107 1.516 2.28 2.28 0 0 1-.248.899l-12.841 22.48q-126.265 218.392-252.562 436.767c-.139.24-.508.347-1.428.941-19.276-4.867-38.729-11.08-58.376-16.571l-58.025-16.822-59.427-17.085-5.3 3.455c-18.406 12.731-36.31 26.197-55.586 37.651l-37.825 22.693c-19.238 10.789-39.034 20.531-59.209 29.463a806.947 806.947 0 0 1-76.022 29.299 741.94 741.94 0 0 1-75.78 20.8l-20.638 4.365q-40.531 7.817-81.639 11.623a791.935 791.935 0 0 1-121.739 1.826c-26.836-1.676-53.487-4.79-80.059-8.955a788.843 788.843 0 0 1-110.047-25.894c-22.588-6.956-44.795-15.122-66.688-24.148-24.267-10.004-47.858-21.388-71.151-33.407-9.36-4.83-18.281-10.51-27.39-15.824-1.379-.805-2.655-1.788-4.041-2.579-22.532-12.863-43.746-27.729-64.927-42.646l-11.01-7.813-175.377 50.605c-3.56-1.259-4.183-3.966-5.417-6.104q-35.976-62.301-71.885-124.641-41.489-71.858-83.044-143.677-44.36-76.846-88.649-153.734l-15.974-27.329c-1.108-1.899-2.137-3.844-3.363-6.057 6.698-8.102 14.622-14.566 21.822-21.727 7.257-7.219 14.741-14.21 22.124-21.302l22.145-21.28L162.612 1143l22.144-21.28 22.27-21.494c-21.235-178 11.593-345.367 101.197-500.54C397.68 444.77 525.89 332.697 690.67 261.955c.727-2.277 1.634-4.637 2.237-7.074q20.385-82.382 40.72-164.776c.535-2.164 1.213-4.292 1.974-6.959 2.14-.207 4.263-.587 6.386-.589l35.514.107q90.23-.027 180.46-.087 134.865.009 269.729.088l34.554-.121c2.183-.003 4.365.194 6.993.321zm374.657 1560.429a21.048 21.048 0 0 0 2.613-2.784q116.128-201.094 232.181-402.231c.401-.962.693-1.966.873-2.993a45.359 45.359 0 0 0-3.001-3.55q-17.536-17.074-35.137-34.082-41.505-39.911-83.058-79.773c-1.809-1.74-3.358-3.749-4.963-5.56.19-1.635.272-2.902.49-4.145 3.606-20.509 4.967-41.267 6.438-61.985 1.087-15.303 1.339-30.678 1.555-46.026.121-8.618-.736-17.245-.89-25.873-.332-18.563-1.898-37.013-3.758-55.485-2.15-21.35-5.474-42.495-9.524-63.517-4.597-23.859-10.487-47.417-17.367-70.757a755.72 755.72 0 0 0-203.988-333.357 795.36 795.36 0 0 0-75.751-63.367 746.88 746.88 0 0 0-102.847-63.327c-19.049-9.76-38.413-19.018-58.468-26.67-2.94-1.122-5.785-2.492-8.857-3.827l-10.675-43.097q-5.173-20.95-10.318-41.906l-10.639-42.813c-3.631-14.196-6.462-28.611-10.974-42.523-4.211-1.177-8.067-.733-11.869-.733q-223.175-.034-446.351-.019c-2.24 0-4.485-.091-6.717.039-1.854.108-3.693.479-6.066.806-5.195 18.964-9.447 37.961-14.213 56.82l-14.005 56.807-14.298 56.68c-2.584 1.182-4.854 2.313-7.195 3.271-5.327 2.18-10.775 4.083-16.023 6.434-36.828 16.495-72.594 34.954-106.647 56.72a767.501 767.501 0 0 0-96.417 72.752 750 750 0 0 0-79.34 81.992 782.24 782.24 0 0 0-52.925 71.793 739.454 739.454 0 0 0-43.723 76.642 758.614 758.614 0 0 0-62.949 182.704c-4.251 20.655-7.756 41.455-10.159 62.445-2.402 20.984-4.427 41.985-5.023 63.092-.777 27.5-.98 54.992 1.45 82.457 1.522 17.197 2.451 34.442 5.541 51.473.442 2.439.061 5.028.061 7.94l-31.569 30.517-31.235 29.825-31.681 30.751c-10.401 10.294-21.722 19.673-31.702 30.923q117.178 202.866 233.927 404.956a21.22 21.22 0 0 0 1.818 2.324c2.152-.487 4.016-.813 5.824-1.333q40.099-11.534 80.185-23.112 38.71-11.163 77.429-22.296a60.74 60.74 0 0 1 6.04-1.146q209.108 162.297 472.658 164.874 264.429-2.381 473.022-165.391z" fill="#040303"/><path d="m1643.894 1643.293-168.212-48.641q-208.798 162.611-473.022 165.391-263.968-2.244-472.657-164.874a60.74 60.74 0 0 0-6.04 1.146q-38.729 11.1-77.429 22.296-40.091 11.561-80.185 23.112c-1.808.52-3.672.846-5.824 1.333a21.22 21.22 0 0 1-1.818-2.324q-116.869-202.277-233.927-404.956c9.98-11.25 21.301-20.629 31.702-30.923l31.681-30.751 31.235-29.825 31.569-30.517c0-2.912.381-5.501-.061-7.94-3.09-17.031-4.019-34.276-5.541-51.473-2.43-27.465-2.227-54.956-1.45-82.457.596-21.107 2.622-42.108 5.023-63.092 2.402-20.99 5.907-41.79 10.159-62.445a758.57 758.57 0 0 1 62.949-182.704 739.74 739.74 0 0 1 43.723-76.642 782.24 782.24 0 0 1 52.925-71.793 750 750 0 0 1 79.34-81.993 767.501 767.501 0 0 1 96.417-72.752c34.053-21.766 69.818-40.225 106.647-56.72 5.249-2.351 10.696-4.254 16.023-6.434 2.341-.958 4.611-2.09 7.195-3.271 5.191-18.822 9.604-37.788 14.298-56.68l14.005-56.806 14.213-56.82c2.373-.327 4.212-.698 6.066-.806 2.232-.13 4.478-.039 6.717-.039q223.175-.001 446.351.019c3.802.001 7.658-.443 11.869.733 4.512 13.912 7.343 28.327 10.974 42.523l10.639 42.813q5.175 20.949 10.318 41.906l10.675 43.097c3.071 1.334 5.916 2.705 8.857 3.827 20.055 7.653 39.419 16.91 58.468 26.67a746.88 746.88 0 0 1 102.846 63.327 795.36 795.36 0 0 1 75.751 63.368 755.72 755.72 0 0 1 203.988 333.357c6.88 23.341 12.77 46.899 17.367 70.757 4.05 21.022 7.374 42.167 9.524 63.517 1.86 18.473 3.426 36.923 3.758 55.486.154 8.628 1.012 17.255.89 25.873-.216 15.348-.469 30.723-1.555 46.026-1.471 20.718-2.832 41.476-6.438 61.985-.218 1.243-.3 2.51-.49 4.145 1.605 1.811 3.154 3.821 4.963 5.56q41.503 39.914 83.058 79.773 17.642 16.965 35.137 34.082a45.359 45.359 0 0 1 3.001 3.55 14.067 14.067 0 0 1-.873 2.993q-116.052 201.138-232.181 402.231a20.994 20.994 0 0 1-2.613 2.785zm-642.67-1226.936c10.298-3.651 20.039-5.258 29.682-7.08 9.998-1.89 20.253-2.303 29.793-4.526a9.25 9.25 0 0 0 1.289-2.113 105.82 105.82 0 0 0 .386-39.061c-.192-1.125-1.22-2.108-2.066-3.496-3.3.574-6.464.955-9.544 1.689a282.295 282.295 0 0 0-58.6 20.943c-2.553 1.247-5.171 2.361-7.676 3.5-3.415-2.345-5.339-5.082-5.975-8.586.543-.676.842-1.327 1.349-1.633 1.913-1.153 3.847-2.291 5.856-3.263 23.662-11.46 48.041-21.001 73.562-27.501a37.67 37.67 0 0 0 4.928-1.961c5.172-15.838 2.092-49.643-3.252-58.914-3.214-.266-6.014 1.446-8.91 2.58a567.486 567.486 0 0 0-91.652 45.963c-3.513 2.172-7.094 4.233-10.598 6.318-3.41-2.056-6.247-3.921-6.975-8.222 10.489-7.98 21.106-15.642 32.209-22.57 11.122-6.94 22.297-13.851 33.847-20.03 11.831-6.329 23.999-12.087 36.288-17.483 11.964-5.254 24.268-9.734 36.555-14.606.249-2.492.609-4.685.665-6.887a207.894 207.894 0 0 0-1.327-28.725 214.59 214.59 0 0 0-9.544-43.961c-.494-1.48-.737-3.165-3.252-3.946-1.519.629-3.589 1.357-5.543 2.319l-18.87 9.469c-40.212 20.757-78.403 44.588-112.643 74.381a443.215 443.215 0 0 0-73.761 81.715c-1.064 1.533-1.98 3.17-3.189 5.12 2.188 1.93 3.978 3.68 5.938 5.212 21.744 17 41.881 35.699 59.447 57.021 6.905 8.382 13.143 17.315 19.649 26.024.982 1.315 1.605 2.785.031 4.594l-15.725 2.726c-26.605 4.707-52.24 12.391-76.31 24.878-32.979 17.108-58.977 41.424-76.741 74.255-1.36 2.514-2.807 4.98-4.136 7.331l-16.969 7.425c-35.999 16.39-69.234 37.292-100.325 61.661a537.11 537.11 0 0 0-48.252 42.44 33.689 33.689 0 0 0-4.84 5.852 3.86 3.86 0 0 0 .454 3.476 3.97 3.97 0 0 0 3.234 1.413 30.67 30.67 0 0 0 6.184-2.432c9.281-4.31 18.411-8.971 27.831-12.949a432.325 432.325 0 0 1 95.591-27.723 473.96 473.96 0 0 1 75.365-7.085c16.314-.163 32.598.131 48.899 1.391a584.27 584.27 0 0 1 69.336 9.373l15.07 2.871c1.535.275 3.192.525 4.213-1.229-1.839-11.102-11.595-35.712-17.577-44.249a21.81 21.81 0 0 0-2.677-.674c-17.472-2.25-35.065-2.716-52.636-3.437-17.297-.709-34.522 1.038-51.77 1.874-6.057.294-12.093 1.19-18.111 2.01a58.88 58.88 0 0 0-6.885 1.715c-1.551 3.119-2.625 5.801-4.136 8.208-3.084 4.915-10.848 7.871-16.974 5.295-6.396-2.689-11.025-8.638-10.807-15.571.216-6.867 3.196-12.327 9.809-15.208 2.023-.881 4.157-1.507 6.304-2.273l3.965-10.965a119.35 119.35 0 0 1 17.74-32.768c14.73-18.821 33.452-32.51 55.107-42.124 26.583-11.801 54.677-17.833 83.612-19.655a479.74 479.74 0 0 1 90.006 3.276 465.68 465.68 0 0 1 51.898 9.254c70.516 17.103 132.173 50.945 185.841 99.468 39.694 35.889 72.513 77.438 99.865 123.37 26.632 44.723 47.434 92.07 63.381 141.554 5.096 15.812 9.29 31.914 13.896 47.883.62 2.149 1.191 4.315 1.903 6.434.133.396.827.605 1.707 1.2a47.564 47.564 0 0 0 2.688-4.954c11.078-27.68 19.719-56.028 24.721-85.509a44.55 44.55 0 0 0-2.599-25.277c-4.63-11.228-8.808-22.695-14.228-33.536a786.583 786.583 0 0 0-71.658-116.813c-16.608-22.414-34.661-43.528-55.06-62.609a559.14 559.14 0 0 0-55.449-45.802 485.712 485.712 0 0 0-113.779-61.122c-42.043-15.729-85.75-22.878-130.309-25.777-6.351-.413-12.723-.497-18.952-1.981-3.456-5.258-7.01-10.144-9.811-17.199zM509.637 1456.391c.522-2.428.934-3.929 1.159-5.458a452.51 452.51 0 0 1 9.599-48.911c5.518-21.085 12.555-41.633 22.073-61.277.907-1.871 1.241-4.43 4.673-4.756 1.884 2.116 4.08 4.385 6.054 6.834a317.96 317.96 0 0 0 33.569 35.558 212.024 212.024 0 0 0 60.948 39.407 166.98 166.98 0 0 0 50.011 12.647 169.09 169.09 0 0 0 24.895.861 15.74 15.74 0 0 1 11.41 3.782c5.24 4.189 10.76 8.043 16.29 11.853a489.79 489.79 0 0 0 87.575 47.495 546.68 546.68 0 0 0 71.572 24.728 26.96 26.96 0 0 0 5.619.921 3.487 3.487 0 0 0 3.503-2.755 4.49 4.49 0 0 0-.893-3.443 15.64 15.64 0 0 0-3.783-2.878c-37.502-23.986-70.122-53.435-98.535-87.655-30.869-37.177-55.504-78.136-75.003-122.282-8.28-18.745-15.443-37.896-21.827-57.355-.863-2.63-1.073-5.633-3.944-7.714a17.53 17.53 0 0 0-2.982 2.083 279.62 279.62 0 0 0-24.104 29.832 50.37 50.37 0 0 0-3.062 5.522c9.917 29.79 47.957 94.217 66.902 113.877 3.258 0 6.457-.222 9.615.048 5.951.508 10.213 3.602 12.249 9.276a16.33 16.33 0 0 1-6.064 18.739c-6.202 4.461-13.572 4.457-19.577-.104-1.739-1.321-3.316-2.853-4.781-4.126l-12.728 2.167c-21.962 3.951-43.281 1.574-64.113-6.251-21.313-8.006-39.62-20.626-56.109-36.097a271.974 271.974 0 0 1-49.258-62.259c-33.56-57.867-57.418-119.116-64.065-186.307a424.71 424.71 0 0 1-2.447-48.823 418.205 418.205 0 0 1 3.52-50.693 501.71 501.71 0 0 1 16.428-75.833c14.115-46.836 34.572-90.8 60.172-132.385a720.2 720.2 0 0 1 98.104-125.094l17.573-17.717a22.88 22.88 0 0 0 2.279-3.702c-2.788.135-4.669.098-6.515.335a394.58 394.58 0 0 0-41.429 7.89c-16.503 3.939-32.784 8.56-48.525 14.996a36.03 36.03 0 0 0-13.25 9.161 277.335 277.335 0 0 0-29.475 38.999c-23.386 36.749-44.347 74.827-61.533 114.909-8.07 18.821-15.612 37.838-21.109 57.6a531.7 531.7 0 0 0-19.788 157.333 464.36 464.36 0 0 0 6.446 64.844 380.337 380.337 0 0 0 19.207 71.189c8.269 21.513 17.653 42.527 27.942 63.143 1.135 2.275 2.159 4.605 3.188 6.808-1.453 5.614-4.869 9.965-7.278 14.799-.691 1.386-1.51 2.875-4.022 2.599-1.736-1.721-3.846-3.665-5.789-5.763a392.421 392.421 0 0 1-28.729-34.735 61.8 61.8 0 0 0-4.192-4.712c-13.573 2.9-31.958 13.855-38.248 22.607 5.421 7.736 13.35 16.181 28.189 28.497 10.534 8.743 21.626 16.815 32.435 25.16-1.532 5.341-1.564 5.324-5.52 9.147-2.28-1.385-4.767-2.747-7.098-4.335-20.929-14.258-40.735-29.894-58.613-47.893-1.768-1.78-3.773-3.326-5.795-5.092-1.938.37-3.848.872-5.718 1.501a138.667 138.667 0 0 0-42.274 27.75c-.815.77-1.124 2.075-1.862 3.507l9.836 8.116a565.71 565.71 0 0 0 87.717 56.701c2.208 1.149 4.258 2.601 6.249 3.83.019 3.834-.912 6.699-3.209 8.889-3.77.497-6.486-1.485-9.341-2.756-43.52-19.361-83.87-43.802-119.972-75.036a60.72 60.72 0 0 0-5.311-3.724c-5.54 1.053-9.662 4.223-14.022 6.791a202.05 202.05 0 0 0-49.448 40.658c-1.223 1.389-2.794 2.679-2.178 5.518 1.09.876 2.48 2.162 4.03 3.214a715.66 715.66 0 0 0 76.547 45.771c48.87 24.912 100.411 41.391 154.942 48.134 6.634.82 13.32 1.213 20.998 1.894zm977.968-437.138 10.414 12.588c15.716 19.185 23.844 41.463 26.131 65.897 1.862 19.89-.032 39.533-4.75 59.004-6.845 28.252-18.386 54.507-33.007 79.449a526.9 526.9 0 0 1-57.129 79.291 408.407 408.407 0 0 1-79.594 70.322c-38.184 25.872-79.674 44.717-123.883 57.643a501.513 501.513 0 0 1-75.944 15.861 607.201 607.201 0 0 1-67.872 5.104 592.116 592.116 0 0 1-89.938-5.252c-16.146-2.182-32.277-4.57-48.319-7.409-22.678-4.014-45.007-9.632-67.192-15.808-1.777-.495-3.59-.864-5.338-1.28-.268.821-.505 1.16-.418 1.345a20.83 20.83 0 0 0 1.748 3.313c8.459 11.69 18.327 22.159 28.049 32.786a335.325 335.325 0 0 0 37.125 34.665 36.938 36.938 0 0 0 16.292 7.626 276.889 276.889 0 0 0 45.647 5.652c42.223 1.38 84.415 1.358 126.502-3.431 29.609-3.369 58.813-8.432 87.396-17.068 60.624-18.316 116.622-45.648 166.637-84.749 24.022-18.78 45.981-39.676 65.042-63.574q20.065-25.156 37.795-51.975c1.746-2.629 3.603-5.184 5.448-7.829l15.646-.958a4.45 4.45 0 0 1 4.586 2.317c-3.862 19.261-12.598 37.424-19.619 55.874a15 15 0 0 0 1.947 2.807 114.03 114.03 0 0 0 31.181 18.587c1.743.691 3.612 1.381 5.482.244 4.202-7.948 7.023-16.778 10.879-38.506 2.385-13.438 3.736-27.06 5.589-40.881 3.692-.795 6.99-1.418 10.486.345a36.4 36.4 0 0 1 .23 4.951l-2.842 28.622a345.09 345.09 0 0 1-10.006 50.768c-.676 2.364-.6 4.944-.893 7.604a127.97 127.97 0 0 0 50.052 26.032c.78.208 1.773-.38 2.659-.595a14.64 14.64 0 0 0 1.047-2.8c3.224-21.833 6.12-43.71 6.421-65.818l.097-47.019c.01-2.801-.801-5.733 1.199-8.76 2.755-.315 5.478-2.666 9.19-.891 2.712 13.322 3.169 27.076 3.975 40.727 2.31 39.11-1.225 77.877-8.682 116.492 6.801 5.526 14.243 9.174 21.584 12.97a208.05 208.05 0 0 0 50.457 17.998 59.78 59.78 0 0 0 6.886.702 44.69 44.69 0 0 0 1.192-5.854l.817-17.254a588.127 588.127 0 0 0 .061-77.649 507.45 507.45 0 0 0-8.37-65.586 443.76 443.76 0 0 0-33.445-101.812c-.776-1.676-1.283-3.719-3.449-4.151a3.207 3.207 0 0 0-1.052-.051c-2.41.843-4.835 1.655-7.204 2.605a384.19 384.19 0 0 1-99.093 25.505c-4.689.545-9.456 1.433-14.123.151a6.21 6.21 0 0 1-.278-2.126c.62-2.146 1.366-4.257 2.105-6.368 2.429-6.939 5.083-13.807 7.277-20.82 9.634-30.785 14.862-62.074 11.505-94.512a185.32 185.32 0 0 0-11.344-47.4c-4.592-12.013-11.024-23.048-17.911-34.112l.546-7.525c.979-10.181 2.376-20.338 2.92-30.541a492.537 492.537 0 0 0-2.005-76.664 546.832 546.832 0 0 0-9.367-59.661c-2.027-9.37-4.425-18.661-6.804-27.95a12.99 12.99 0 0 0-2.536-4.992c-.625-.744-2.297-.916-3.443-.803-.909.24-1.65.896-1.999 1.769a22.93 22.93 0 0 0-.69 4.705c-1.291 13.364-2.062 26.801-3.943 40.081a436.963 436.963 0 0 1-23.696 91.752 509.16 509.16 0 0 1-55.636 107.004 550.924 550.924 0 0 1-52.283 66.207 73.95 73.95 0 0 0-4.487 6.111 262.073 262.073 0 0 0 48.894 7.602c1.663-2.068 3.182-3.7 4.41-5.528l23.901-35.947a459.25 459.25 0 0 0 33.579-64.648c1.342-3.18 3.303-6.246 3.051-9.932a77.98 77.98 0 0 1-4.63-7.305c-3.074-6.229-1.588-12.795 3.654-17.362 7.711-6.72 20.855-4.125 25.557 5.007a15.64 15.64 0 0 1-.076 15.073zm-391.877 11.353c1.952-1.588 3.603-3.067 5.387-4.364q55.099-40.059 110.223-80.082l24.81-18.084c1.429-1.053 3.377-1.883 3.128-4.199-.777-1.457-2.174-1.217-3.356-1.238l-13.435-.052q-75.335-.003-150.67-.032c-3.778-.003-7.663.645-11.366-.943-2.727-3.066-3.192-7.025-4.372-10.602l-21.355-65.664q-13.764-42.417-27.584-84.815c-1.053-3.212-1.453-6.811-4.264-9.611-2.955 2.683-3.274 6.361-4.327 9.591q-24.516 75.224-48.901 150.491c-1.173 3.609-2.597 7.137-3.764 10.317-4.274 1.925-8.167 1.232-11.952 1.235q-78.214.072-156.428.037c-3.198 0-6.399-.008-9.592.136a6.67 6.67 0 0 0-2.213.961c.235 2.661 2.308 3.25 3.757 4.306q32.168 23.466 64.398 46.846 34.548 25.089 69.084 50.194c2.507 1.831 5.61 3.156 7.239 6.963l-3.254 10.443q-20.74 63.848-41.5 127.69l-9.083 28.304c-.418 1.336-1.183 3.054 1.357 4.371 12.138-8.308 24.11-17.317 36.219-26.132q17.841-12.988 35.716-25.928 18.255-13.232 36.524-26.445l36.482-26.374c2.291 1.469 4.227 2.578 6.022 3.881q43.081 31.296 86.133 62.634 24.446 17.771 48.946 35.468c1.67 1.204 3.12 3.274 5.704 2.467.993-2.01.004-3.753-.578-5.549q-16.09-49.725-32.175-99.453-9.751-30.107-19.525-60.207c-.668-2.072-.944-4.27-1.434-6.559zm322.66-90.707-7.014-34.668c-14.4-67.042-37.708-130.777-71.279-190.642-29.648-52.869-66.205-100.26-112.001-140.258a414.85 414.85 0 0 0-78.79-54.372c-29.285-15.524-60.271-26.369-92.399-34.234a409.79 409.79 0 0 0-67.092-11.1c-15.283-1.134-30.687-.976-46.032-.837-31.48.285-61.401 7.801-90.068 20.54q-49.315 21.915-69.169 72.156a50.88 50.88 0 0 0-1.508 5.467l4.741 5.073c1.633 1.863 3.174 3.806 4.405 5.291 14.358-2.091 27.902-4.582 41.559-5.907 13.985-1.357 28.08-1.605 42.129-2.279 13.684-.657 27.291 2.024 41.61 1.519-.404-1.782-.415-3.081-.969-4.079a174.24 174.24 0 0 0-21.131-29.895c-7.532.535-14.87.795-22.139 1.644-7.611.889-15.197 2.132-22.718 3.613-7.204 1.418-14.276 3.495-21.465 4.996-7.356 1.535-14.086 5.393-22.649 6.415a68.335 68.335 0 0 1 11.654-13.931c20.322-19.481 44.484-32.031 71.428-39.565 26.152-7.312 52.852-9.072 79.841-7.908 1.078.14 2.145.357 3.191.651a50.303 50.303 0 0 1 2.855 5.713c2.487 6.916 5.163 13.794 7.122 20.864a365.27 365.27 0 0 1 12.536 70.694c1.492 20.146 1.82 40.229-.053 60.348-.26 2.798-.036 5.641-.036 8.872l28.341 12.18c9.324 4.209 18.589 8.57 27.721 13.178s18.162 9.441 27.065 14.48q13.772 7.796 27.188 16.214 12.987 8.175 25.556 17.009c8.376 5.875 16.48 12.136 24.733 18.189 8.2 6.014 15.593 13.098 24.434 19.014 3.105-3.727 3.48-7.982 4.141-11.904 2.598-15.416 5.063-30.88 2.505-46.388a289.131 289.131 0 0 0-29.281-20.87c-9.959-6.383-19.987-12.692-30.284-18.505-10.574-5.969-21.388-11.547-32.32-16.835-10.586-5.121-21.456-9.656-32.54-14.6l.985-6.61c4.173-.572 7.469.697 10.799 1.712a323.436 323.436 0 0 1 43.778 17 434.754 434.754 0 0 1 41.441 22.153c1.818 1.112 3.589 2.768 6.566 1.398 1.46-2.997 1.005-6.589.747-9.966-1.118-14.609-1.544-29.341-6.171-43.671-10.228-5.577-21.194-9.107-31.918-13.173q-16.59-6.29-33.356-12.114c-10.851-3.745-21.817-7.159-32.902-10.774-.706-3.963-1.464-7.696-1.986-11.461-.155-1.12.353-2.332.622-3.874 2.635.598 4.835.928 6.926 1.598l42.89 13.843c1.741.561 3.469 1.901 5.83-.009a80.16 80.16 0 0 0-3.04-29.848 7.38 7.38 0 0 0-4.174-4.966c-2.618-1.193-5.202-2.492-7.897-3.482l-42.351-15.411-8.427-3.045-6.078-23.145c-.169-.674.64-1.593 1.101-2.639a356.85 356.85 0 0 1 57.497 18.831 376.438 376.438 0 0 1 79.521 46.05c16.07 12.217 31.378 25.277 44.403 40.823a615.36 615.36 0 0 1 72.545 108.154c18.143 34.349 32.844 69.997 41.626 107.983 6.135 26.541 10.608 53.323 12.058 80.508 1.261 23.639 1.199 47.299-1.279 70.919a450.91 450.91 0 0 1-7.335 47.346l-2.35 11.535c13.928-8.832 63.607-74.726 76.11-101.013zM866.676 686.311c-1.168-2.614-2.879-2.659-4.403-2.93l-52.887-9.263a367.45 367.45 0 0 0-59.264-4.298c-4.771.062-8.638 1.231-12.181 4.44l-34.305 30.728a690.42 690.42 0 0 0-70.93 78.042c-38.39 49.284-69.564 102.641-91.242 161.38a462.058 462.058 0 0 0-28.306 132.72 356.52 356.52 0 0 0 5.826 89.778c8.905 45.792 23.752 89.546 46.317 130.562 15.259 27.736 34.091 52.533 58.265 73.141 13.225 11.274 27.426 20.944 43.497 27.77 21.534 9.146 44 10.402 66.889 8.11 2.462-.246 4.846-1.27 7.186-1.912l4.387-13.244-15.707-19.432c-5.082-6.577-10.061-13.247-14.77-20.093q-7.336-10.666-14.034-21.767c-4.303-7.109-8.194-14.466-12.32-21.683-4.096-7.166-6.846-15.068-11.799-22.276-3.828 3.713-5.843 8.076-7.832 12.327-3.633 7.765-7.946 15.3-9.561 23.638 2.327 6.144 6.061 10.974 9.607 15.872 12.614 17.418 26.7 33.507 43.187 47.416 1.853 1.563 4.477 2.673 4.663 5.685a5.39 5.39 0 0 1-1.891.354c-4.691-.959-9.416-1.809-14.034-3.051-30.926-8.319-56.146-25.846-77.754-48.912-15.842-16.911-28.57-36.078-39.345-56.554-.867-1.648-1.428-3.456-2.192-5.338 2.297-2.984 4.359-5.819 6.58-8.524 11.614-14.15 24.923-26.609 38.89-38.358 24.862-20.915 52.266-37.894 81.505-51.977 1.957-.943 3.79-2.144 5.634-3.198.438-5.29-.334-10.023-1.003-14.74a476.485 476.485 0 0 1-4.741-53.476c-.566-20.136-.381-40.304-.02-60.45.194-10.855 1.029-21.739 2.307-32.523 1.918-16.181 4.505-32.283 6.735-48.428a43.54 43.54 0 0 0 .034-5.732c-4.008-1.208-7.233.461-10.443 1.542-15.207 5.12-29.738 11.614-42.74 21.2-.587 3.052-1.366 5.847-1.627 8.689-.88 9.552-1.924 19.108-2.258 28.685-.48 13.743-.548 27.506-.494 41.259.045 11.509.247 23.02 1.827 34.471 1.136 8.229 1.872 16.516 2.664 24.789a33.24 33.24 0 0 1-.254 5.238c-2.164 1.674-3.804 3.399-6.731 1.825a34.1 34.1 0 0 1-1.15-3.216 306.541 306.541 0 0 1-9.347-61.532c-.699-13.406-.448-26.862-.659-40.295-.023-1.5.433-3.253-1.429-4.138-12.729 4.981-34.468 20.532-44.293 31.791-.669 6.782 1.089 13.657 2.063 20.58.979 6.96 2.221 13.885 3.402 20.816l3.672 20.775c1.308 6.909 3.018 13.749 4.095 20.69 1.069 6.891 4.073 13.43 3.974 20.823-2.801 2.181-5.5 4.411-8.35 6.429-.934.661-2.259.77-3.748 1.24-3.538-9.062-5.105-18.164-7.048-27.154l-5.802-27.92c-1.204 0-1.924-.211-2.422.032a95.261 95.261 0 0 0-21.331 14.539c-3.663 3.232-5.33 6.876-4.44 11.87l6.79 40.658c.909 5.964 3.341 11.708 2.831 18.128a147.218 147.218 0 0 1-16.81 16.832c-.364.303-1.198.039-2.211.039-2.601-6.352-3.86-13.251-5.517-20.033a355.53 355.53 0 0 1-9.936-84.582 370.705 370.705 0 0 1 4.778-59.212c2.762-17.107 6.611-33.897 12.73-50.104a618.34 618.34 0 0 1 60.914-120.487c13.667-20.901 28.111-41.248 45.278-59.478a517.69 517.69 0 0 1 42.966-41.112c44.283-37.344 93.622-65.634 148.736-83.7l11.331-3.781zm419.989 547.821c-2.126 2.319-3.297 3.845-4.711 5.097-6.941 6.148-13.754 12.462-20.966 18.278a406.6 406.6 0 0 1-58.248 38.737c-2.094 1.162-4.863 1.672-5.722 4.477 10.352 8.715 36.346 20.397 50.495 22.616 2.136-1.496 4.57-3.029 6.816-4.8 23.361-18.425 46.399-37.231 67.977-57.756 1.578-1.501 3.405-2.742 4.88-3.915 8.573 2.577 8.573 2.577 13.257 6.63-12.403 14.163-27.335 25.658-41.033 38.412 6.303 6.629 18.686 12.257 31.746 14.43 2.671-1.883 5.946-3.883 8.869-6.306l36.008-30.202 5.777-4.845c8.591 2.178 16.946 3.905 25.374 7.274a29.598 29.598 0 0 1-2.476 3.538 370.156 370.156 0 0 1-43.025 38.172 375.51 375.51 0 0 1-80.522 46.205c-17.14 7.136-34.585 13.493-52.911 16.844-11.622 2.125-23.377 3.517-35.069 5.262-21.553 3.215-43.294 4.004-65.016 4.678-23.359.725-46.656-.815-69.918-3.022q-19.12-1.814-37.947-5.433a463.1 463.1 0 0 1-181.241-79.63c-12.9-9.492-25.078-19.836-37.034-30.465a49.22 49.22 0 0 0-4.408-3.132c-1.074 2.962.372 4.942 1.052 6.988 6.552 19.729 13.727 39.23 21.873 58.36A420.08 420.08 0 0 0 842 1383.49a19.732 19.732 0 0 0 11.323 9.477 829.6 829.6 0 0 0 82.703 24.506 682.984 682.984 0 0 0 125.151 17.725 564.453 564.453 0 0 0 98.63-3.79 496.297 496.297 0 0 0 93.47-20.777c44.426-14.644 85.672-35.428 122.503-64.411a439.11 439.11 0 0 0 89.554-95.564 345.69 345.69 0 0 0 28.064-47.981 238.635 238.635 0 0 0 22.035-80.014 136.57 136.57 0 0 0-2.044-39.091c-4.008-21.256-13.948-39.673-27.229-56.459a19.433 19.433 0 0 0-3.019-2.508l-6.549 1.737c-2.411.613-5.207-.363-7.424 1.935-.636 1.564-1.447 3.309-2.065 5.12a394.05 394.05 0 0 1-39.782 82.82c-4.088 6.494-8.375 12.862-12.578 19.283-.881 1.346-1.801 2.671-.459 4.527 12.651.934 25.298-.489 37.831-2.745 4.126-4.451 6.203-9.875 8.603-15.07a275.376 275.376 0 0 0 21.239-67.513c.165-.925-.431-2.663 1.686-2.632a13.19 13.19 0 0 1 1.529 2.363 131.973 131.973 0 0 1 8.177 35.405 176.44 176.44 0 0 1-4.757 58.992c-6.684 26.33-18.205 50.443-32.515 73.348a31.194 31.194 0 0 1-3.542 4.03 243.57 243.57 0 0 1-42.595-9.197 372.681 372.681 0 0 1-104.194-50.08c-2.593-1.773-5.329-3.336-7.842-4.899a30.83 30.83 0 0 0-2.935 1.669l-31.552 23.478a603.642 603.642 0 0 1-103.257 58.713c-14.619 6.446-29.559 12.161-44.333 18.259-2.218.915-5.018 1.098-5.975 3.909 9.091 11.868 33.271 29.072 47.945 33.853l25.51-11.724c8.612-4.216 17.112-8.682 25.505-13.322 8.113-4.486 16.142-9.149 23.994-14.074 8.123-5.095 15.978-10.617 23.972-15.92 7.94-5.268 15.001-11.778 23.282-16.987z" fill="#da261c"/><path d="M1001.224 416.357c2.801 7.054 6.355 11.941 9.811 17.199 6.23 1.483 12.602 1.567 18.952 1.981 44.558 2.899 88.265 10.048 130.309 25.777a485.765 485.765 0 0 1 113.779 61.121 559.14 559.14 0 0 1 55.449 45.802c20.399 19.081 38.452 40.194 55.06 62.609a786.541 786.541 0 0 1 71.658 116.814c5.419 10.841 9.597 22.308 14.228 33.536a44.55 44.55 0 0 1 2.599 25.277c-5.003 29.481-13.644 57.829-24.721 85.509a47.752 47.752 0 0 1-2.688 4.954c-.879-.596-1.573-.804-1.707-1.2-.712-2.119-1.283-4.284-1.903-6.434l-13.896-47.883c-15.948-49.484-36.75-96.83-63.381-141.554-27.352-45.933-60.171-87.481-99.865-123.37-53.669-48.524-115.325-82.365-185.841-99.468a465.22 465.22 0 0 0-51.898-9.254 479.572 479.572 0 0 0-90.006-3.276c-28.935 1.822-57.029 7.854-83.612 19.655-21.656 9.614-40.377 23.303-55.107 42.124a119.35 119.35 0 0 0-17.74 32.768l-3.965 10.965c-2.147.765-4.281 1.391-6.304 2.273-6.612 2.881-9.593 8.341-9.809 15.208-.218 6.933 4.412 12.881 10.807 15.571 6.126 2.576 13.89-.379 16.974-5.295 1.511-2.408 2.585-5.089 4.136-8.208a58.88 58.88 0 0 1 6.885-1.715c6.018-.82 12.054-1.716 18.111-2.01 17.248-.837 34.474-2.583 51.77-1.874 17.571.72 35.164 1.187 52.636 3.437a21.81 21.81 0 0 1 2.677.674c5.982 8.537 15.738 33.146 17.577 44.249-1.021 1.753-2.678 1.503-4.213 1.229l-15.07-2.871a584.27 584.27 0 0 0-69.336-9.373c-16.3-1.26-32.585-1.554-48.899-1.391a473.96 473.96 0 0 0-75.365 7.085 432.27 432.27 0 0 0-95.591 27.723c-9.42 3.978-18.55 8.639-27.831 12.949a30.588 30.588 0 0 1-6.184 2.432 3.97 3.97 0 0 1-3.234-1.413 3.86 3.86 0 0 1-.454-3.476 33.689 33.689 0 0 1 4.84-5.852 537.11 537.11 0 0 1 48.252-42.44c31.091-24.369 64.327-45.271 100.325-61.661 5.523-2.514 11.118-4.87 16.969-7.425l4.136-7.331c17.765-32.831 43.762-57.147 76.741-74.255 24.07-12.487 49.705-20.171 76.31-24.878l15.725-2.726c1.574-1.81.951-3.28-.031-4.594-6.506-8.709-12.743-17.642-19.649-26.024-17.565-21.322-37.703-40.02-59.447-57.021-1.96-1.533-3.75-3.283-5.938-5.212 1.209-1.95 2.125-3.586 3.189-5.12a443.18 443.18 0 0 1 73.761-81.715c34.24-29.793 72.431-53.625 112.643-74.381l18.87-9.469c1.954-.962 4.024-1.69 5.543-2.319 2.515.781 2.758 2.466 3.252 3.946a214.59 214.59 0 0 1 9.544 43.961 207.894 207.894 0 0 1 1.327 28.725c-.056 2.201-.416 4.395-.665 6.887-12.287 4.872-24.591 9.352-36.555 14.606-12.289 5.397-24.457 11.154-36.288 17.483-11.55 6.179-22.726 13.09-33.847 20.03-11.104 6.929-21.721 14.59-32.209 22.57.728 4.301 3.566 6.166 6.975 8.222l10.598-6.318a567.486 567.486 0 0 1 91.652-45.963c2.896-1.134 5.696-2.846 8.91-2.58 5.344 9.271 8.423 43.076 3.252 58.914a37.67 37.67 0 0 1-4.928 1.961c-25.521 6.499-49.9 16.041-73.562 27.501-2.009.973-3.943 2.11-5.856 3.263-.507.306-.807.956-1.349 1.633.636 3.505 2.56 6.241 5.975 8.586l7.676-3.5a282.238 282.238 0 0 1 58.6-20.943c3.08-.734 6.244-1.115 9.544-1.689.847 1.388 1.875 2.371 2.066 3.496a105.82 105.82 0 0 1-.386 39.061 9.25 9.25 0 0 1-1.289 2.113c-9.54 2.223-19.794 2.636-29.793 4.526-9.644 1.823-19.385 3.43-29.682 7.081z" fill="#fefb02"/><path d="M509.637 1456.391c-7.677-.681-14.364-1.074-20.997-1.894-54.531-6.743-106.072-23.222-154.942-48.134a715.66 715.66 0 0 1-76.547-45.771c-1.55-1.051-2.94-2.338-4.03-3.214-.616-2.839.954-4.129 2.178-5.518a202.05 202.05 0 0 1 49.449-40.658c4.36-2.569 8.482-5.739 14.022-6.791a60.72 60.72 0 0 1 5.311 3.724c36.102 31.234 76.451 55.674 119.972 75.036 2.855 1.27 5.571 3.253 9.341 2.756 2.297-2.19 3.229-5.055 3.209-8.889-1.992-1.23-4.042-2.681-6.249-3.83a565.79 565.79 0 0 1-87.717-56.702c-3.253-2.547-6.379-5.256-9.836-8.116.738-1.432 1.047-2.737 1.862-3.507a138.667 138.667 0 0 1 42.274-27.75 43.555 43.555 0 0 1 5.718-1.501c2.023 1.766 4.027 3.311 5.795 5.092 17.877 17.999 37.683 33.635 58.613 47.893 2.331 1.588 4.817 2.95 7.098 4.335 3.956-3.822 3.988-3.806 5.52-9.147-10.809-8.345-21.901-16.417-32.435-25.16-14.839-12.316-22.769-20.761-28.189-28.497 6.29-8.753 24.676-19.708 38.248-22.607a61.8 61.8 0 0 1 4.192 4.712 392.42 392.42 0 0 0 28.729 34.735c1.944 2.098 4.053 4.042 5.789 5.763 2.512.276 3.331-1.213 4.022-2.599 2.409-4.834 5.825-9.185 7.278-14.799l-3.188-6.808c-10.289-20.617-19.673-41.63-27.942-63.143a380.38 380.38 0 0 1-19.207-71.189 464.36 464.36 0 0 1-6.446-64.844 531.7 531.7 0 0 1 19.788-157.334c5.498-19.762 13.04-38.779 21.109-57.6 17.186-40.082 38.147-78.16 61.533-114.909a277.335 277.335 0 0 1 29.475-38.999 36.03 36.03 0 0 1 13.25-9.162c15.742-6.436 32.022-11.056 48.525-14.996a394.58 394.58 0 0 1 41.429-7.89c1.846-.236 3.727-.2 6.515-.335a22.88 22.88 0 0 1-2.279 3.702l-17.573 17.717A720.2 720.2 0 0 0 574.2 814.657c-25.599 41.585-46.057 85.549-60.172 132.385a501.737 501.737 0 0 0-16.428 75.833 418.236 418.236 0 0 0-3.52 50.694 424.71 424.71 0 0 0 2.447 48.823c6.646 67.191 30.505 128.44 64.065 186.307a271.996 271.996 0 0 0 49.258 62.259c16.489 15.471 34.796 28.091 56.109 36.097 20.831 7.825 42.151 10.202 64.113 6.251l12.728-2.167c1.465 1.273 3.042 2.805 4.781 4.126 6.004 4.561 13.375 4.565 19.577.104a16.33 16.33 0 0 0 6.064-18.74c-2.036-5.674-6.298-8.768-12.249-9.276-3.158-.269-6.357-.048-9.615-.048-18.945-19.66-56.985-84.088-66.902-113.877a50.37 50.37 0 0 1 3.062-5.522 279.597 279.597 0 0 1 24.104-29.832 17.53 17.53 0 0 1 2.982-2.083c2.871 2.081 3.081 5.084 3.944 7.714 6.384 19.459 13.548 38.61 21.827 57.355 19.499 44.146 44.134 85.105 75.003 122.282 28.414 34.22 61.034 63.669 98.535 87.655a15.64 15.64 0 0 1 3.783 2.878 4.49 4.49 0 0 1 .894 3.443 3.49 3.49 0 0 1-3.503 2.755 26.96 26.96 0 0 1-5.619-.921 546.68 546.68 0 0 1-71.572-24.728 489.79 489.79 0 0 1-87.575-47.495c-5.529-3.81-11.049-7.664-16.29-11.853a15.74 15.74 0 0 0-11.41-3.782 169.09 169.09 0 0 1-24.896-.861 166.98 166.98 0 0 1-50.011-12.647 211.995 211.995 0 0 1-60.947-39.406 317.874 317.874 0 0 1-33.569-35.558c-1.974-2.448-4.17-4.718-6.054-6.834-3.432.326-3.767 2.884-4.673 4.756-9.518 19.644-16.555 40.192-22.073 61.277a452.51 452.51 0 0 0-9.6 48.912c-.225 1.529-.637 3.031-1.159 5.458zm977.968-437.138a15.64 15.64 0 0 0 .077-15.072c-4.701-9.132-17.845-11.727-25.557-5.007-5.242 4.568-6.728 11.134-3.654 17.362a77.98 77.98 0 0 0 4.63 7.305c.252 3.686-1.709 6.752-3.051 9.932a459.25 459.25 0 0 1-33.579 64.648c-7.615 12.203-15.876 24.002-23.901 35.947-1.228 1.828-2.747 3.46-4.41 5.528a262.17 262.17 0 0 1-48.894-7.602 73.95 73.95 0 0 1 4.487-6.111 551.18 551.18 0 0 0 52.283-66.207 509.16 509.16 0 0 0 55.636-107.004 436.987 436.987 0 0 0 23.696-91.753c1.881-13.28 2.652-26.717 3.943-40.081a22.93 22.93 0 0 1 .69-4.705 2.967 2.967 0 0 1 1.999-1.769c1.146-.113 2.818.06 3.443.803a12.99 12.99 0 0 1 2.536 4.992l6.804 27.95a546.83 546.83 0 0 1 9.367 59.661 492.54 492.54 0 0 1 2.005 76.664c-.544 10.203-1.941 20.36-2.92 30.541-.243 2.53-.371 5.071-.546 7.525 6.887 11.064 13.319 22.099 17.911 34.112a185.32 185.32 0 0 1 11.344 47.4c3.357 32.438-1.871 63.727-11.505 94.512-2.194 7.012-4.849 13.88-7.277 20.82-.739 2.11-1.485 4.222-2.105 6.368a6.21 6.21 0 0 0 .278 2.126c4.668 1.282 9.435.394 14.123-.151a384.19 384.19 0 0 0 99.093-25.505c2.369-.95 4.793-1.762 7.204-2.605a3.205 3.205 0 0 1 1.052.051c2.165.432 2.672 2.475 3.449 4.151a443.76 443.76 0 0 1 33.444 101.812 507.45 507.45 0 0 1 8.37 65.586 588.3 588.3 0 0 1-.061 77.649c-.4 5.742-.454 11.508-.817 17.254a44.69 44.69 0 0 1-1.192 5.854 59.56 59.56 0 0 1-6.886-.702 208.05 208.05 0 0 1-50.457-17.998c-7.342-3.797-14.783-7.444-21.584-12.97 7.457-38.615 10.992-77.382 8.682-116.492-.806-13.651-1.263-27.405-3.975-40.727-3.712-1.775-6.435.576-9.19.891-1.999 3.027-1.188 5.959-1.199 8.76l-.097 47.019c-.301 22.108-3.197 43.985-6.421 65.818a14.64 14.64 0 0 1-1.047 2.8c-.886.215-1.879.804-2.659.595a127.97 127.97 0 0 1-50.052-26.032c.292-2.66.217-5.24.892-7.604a345.09 345.09 0 0 0 10.006-50.768c1.228-9.505 1.964-19.074 2.842-28.622a36.39 36.39 0 0 0-.23-4.951c-3.496-1.764-6.794-1.14-10.486-.345-1.853 13.821-3.204 27.442-5.589 40.881-3.856 21.728-6.677 30.558-10.879 38.506-1.87 1.137-3.74.447-5.482-.244a114.014 114.014 0 0 1-31.181-18.587 14.967 14.967 0 0 1-1.947-2.807c7.021-18.45 15.757-36.613 19.619-55.874a4.45 4.45 0 0 0-4.586-2.317c-5.092.238-10.178.612-15.646.958l-5.448 7.829q-17.791 26.793-37.795 51.975c-19.061 23.898-41.021 44.794-65.042 63.574-50.015 39.101-106.013 66.433-166.637 84.749-28.582 8.636-57.786 13.698-87.396 17.068-42.087 4.79-84.279 4.811-126.502 3.431a276.983 276.983 0 0 1-45.647-5.652 36.943 36.943 0 0 1-16.292-7.626 335.23 335.23 0 0 1-37.125-34.665c-9.722-10.627-19.59-21.095-28.049-32.786a20.625 20.625 0 0 1-1.748-3.313c-.088-.184.15-.523.418-1.345 1.748.416 3.561.785 5.338 1.28 22.185 6.176 44.514 11.794 67.192 15.808 16.042 2.84 32.173 5.227 48.319 7.409a591.86 591.86 0 0 0 89.938 5.252 607.2 607.2 0 0 0 67.872-5.104 501.513 501.513 0 0 0 75.944-15.861c44.209-12.926 85.699-31.77 123.883-57.643a408.407 408.407 0 0 0 79.594-70.322 526.9 526.9 0 0 0 57.129-79.291c14.622-24.942 26.162-51.197 33.007-79.449 4.718-19.471 6.612-39.113 4.75-59.004-2.287-24.434-10.415-46.712-26.131-65.897l-10.414-12.588z" fill="#fefb01"/><path d="m1095.729 1030.606 1.434 6.56q9.707 30.121 19.525 60.207 16.103 49.721 32.175 99.453c.581 1.796 1.571 3.539.578 5.549-2.584.808-4.033-1.263-5.704-2.467q-24.521-17.668-48.946-35.468-43.071-31.311-86.133-62.634c-1.794-1.304-3.731-2.412-6.022-3.881-12.34 8.58-24.342 17.576-36.482 26.374q-18.256 13.231-36.524 26.445-17.867 12.951-35.716 25.928l-36.219 26.132c-2.54-1.317-1.775-3.035-1.357-4.371l9.083-28.304q20.744-63.847 41.5-127.69l3.254-10.443c-1.629-3.807-4.731-5.132-7.239-6.963q-34.479-25.183-69.084-50.195-32.218-23.397-64.398-46.846c-1.449-1.057-3.522-1.645-3.757-4.306a6.672 6.672 0 0 1 2.213-.962c3.193-.144 6.394-.136 9.592-.136q78.214-.009 156.428-.037c3.785-.004 7.678.689 11.952-1.235 1.166-3.18 2.59-6.708 3.764-10.317q24.458-75.243 48.901-150.491c1.053-3.23 1.371-6.908 4.327-9.591 2.81 2.8 3.211 6.399 4.264 9.611q13.89 42.375 27.584 84.815l21.355 65.664c1.18 3.577 1.645 7.536 4.372 10.602 3.703 1.588 7.588.94 11.366.943q75.335.068 150.67.032l13.435.052c1.183.021 2.579-.219 3.356 1.238.249 2.316-1.698 3.146-3.128 4.199l-24.81 18.084q-55.114 40.037-110.223 80.082c-1.784 1.297-3.435 2.776-5.387 4.364z" fill="#fffd01"/><path d="M1418.389 939.899c-12.504 26.287-62.182 92.181-76.111 101.012l2.35-11.535a450.91 450.91 0 0 0 7.335-47.346c2.478-23.62 2.54-47.28 1.279-70.92-1.45-27.185-5.922-53.968-12.058-80.508-8.782-37.987-23.483-73.634-41.626-107.983a615.36 615.36 0 0 0-72.545-108.154c-13.025-15.546-28.334-28.606-44.403-40.823a376.44 376.44 0 0 0-79.521-46.05 356.85 356.85 0 0 0-57.497-18.831c-.461 1.046-1.27 1.965-1.101 2.639l6.078 23.145 8.427 3.045 42.352 15.41c2.695.991 5.279 2.289 7.897 3.482a7.386 7.386 0 0 1 4.174 4.966 80.16 80.16 0 0 1 3.04 29.848c-2.361 1.91-4.089.57-5.83.009l-42.89-13.843c-2.091-.669-4.29-1-6.926-1.598-.269 1.543-.777 2.754-.622 3.874.522 3.765 1.279 7.498 1.986 11.461l32.902 10.774q16.771 5.788 33.356 12.114c10.724 4.066 21.69 7.595 31.918 13.173 4.626 14.331 5.053 29.063 6.171 43.671.258 3.377.713 6.969-.747 9.966-2.977 1.369-4.748-.286-6.566-1.398a434.754 434.754 0 0 0-41.441-22.153 323.333 323.333 0 0 0-43.778-17c-3.33-1.015-6.626-2.284-10.799-1.712l-.985 6.61 32.54 14.6c10.932 5.288 21.746 10.866 32.32 16.835 10.297 5.812 20.325 12.122 30.284 18.505a289.13 289.13 0 0 1 29.281 20.87c2.558 15.509.092 30.972-2.505 46.388-.661 3.923-1.036 8.178-4.141 11.904-8.841-5.917-16.234-13-24.434-19.014l-24.733-18.189a615.996 615.996 0 0 0-25.556-17.009q-13.392-8.43-27.188-16.214-13.353-7.559-27.065-14.48c-9.132-4.609-18.397-8.969-27.721-13.178-9.289-4.193-18.724-8.063-28.341-12.18 0-3.23-.224-6.073.036-8.872 1.872-20.119 1.544-40.202.053-60.348a365.27 365.27 0 0 0-12.536-70.694c-1.959-7.071-4.635-13.948-7.122-20.864a50.47 50.47 0 0 0-2.855-5.713 22.52 22.52 0 0 0-3.192-.651c-26.988-1.164-53.689.595-79.841 7.908-26.944 7.534-51.105 20.083-71.428 39.565a68.37 68.37 0 0 0-11.654 13.932c8.563-1.022 15.293-4.88 22.649-6.415 7.19-1.5 14.262-3.578 21.465-4.996 7.52-1.48 15.107-2.724 22.718-3.613 7.269-.849 14.606-1.109 22.139-1.644a174.24 174.24 0 0 1 21.131 29.895c.554.998.565 2.297.969 4.079-14.319.504-27.925-2.177-41.61-1.519-14.049.675-28.144.922-42.129 2.279-13.657 1.325-27.201 3.816-41.559 5.907l-4.405-5.291c-1.462-1.667-3.024-3.245-4.741-5.073a50.88 50.88 0 0 1 1.508-5.467q19.891-50.147 69.169-72.156c28.667-12.739 58.587-20.255 90.068-20.54 15.345-.139 30.75-.297 46.032.837a409.79 409.79 0 0 1 67.092 11.1c32.128 7.864 63.114 18.709 92.399 34.234a414.85 414.85 0 0 1 78.79 54.371c45.795 39.998 82.353 87.389 112.001 140.258 33.571 59.865 56.88 123.6 71.279 190.642l7.014 34.668zM866.676 686.311l-11.332 3.78c-55.114 18.066-104.453 46.357-148.736 83.7a517.69 517.69 0 0 0-42.966 41.112c-17.168 18.23-31.612 38.577-45.278 59.478a618.34 618.34 0 0 0-60.914 120.487c-6.118 16.208-9.968 32.998-12.73 50.104a370.705 370.705 0 0 0-4.778 59.212 355.53 355.53 0 0 0 9.936 84.582c1.657 6.782 2.915 13.68 5.517 20.033 1.013 0 1.847.263 2.211-.039a147.22 147.22 0 0 0 16.81-16.832c.509-6.42-1.923-12.163-2.831-18.128l-6.79-40.658c-.89-4.994.777-8.638 4.44-11.87a95.24 95.24 0 0 1 21.331-14.539c.499-.242 1.218-.032 2.422-.032l5.802 27.92c1.943 8.99 3.51 18.091 7.048 27.154 1.489-.47 2.814-.579 3.748-1.24 2.85-2.018 5.549-4.248 8.35-6.429.098-7.393-2.906-13.932-3.974-20.823-1.076-6.941-2.787-13.782-4.095-20.69l-3.672-20.775-3.402-20.816c-.974-6.923-2.732-13.797-2.062-20.58 9.825-11.26 31.565-26.811 44.293-31.791 1.861.886 1.405 2.638 1.429 4.138.21 13.433-.04 26.888.659 40.295a306.47 306.47 0 0 0 9.346 61.532 34.1 34.1 0 0 0 1.15 3.216c2.927 1.574 4.567-.151 6.731-1.825a33.24 33.24 0 0 0 .254-5.238l-2.664-24.789c-1.581-11.452-1.783-22.962-1.827-34.471-.054-13.753.015-27.517.494-41.259.334-9.577 1.378-19.133 2.258-28.685.262-2.842 1.04-5.637 1.627-8.689 13.002-9.586 27.534-16.08 42.74-21.2 3.21-1.081 6.435-2.749 10.443-1.542a43.54 43.54 0 0 1-.034 5.732l-6.735 48.429c-1.278 10.784-2.113 21.669-2.307 32.523-.361 20.145-.546 40.314.02 60.45a476.25 476.25 0 0 0 4.741 53.476c.669 4.716 1.441 9.45 1.003 14.74-1.844 1.054-3.677 2.255-5.634 3.198-29.239 14.083-56.642 31.061-81.505 51.977-13.967 11.749-27.276 24.208-38.89 38.358-2.22 2.705-4.283 5.54-6.58 8.524.764 1.882 1.325 3.69 2.192 5.338 10.775 20.476 23.504 39.643 39.345 56.554 21.608 23.066 46.827 40.592 77.754 48.912 4.618 1.242 9.343 2.092 14.034 3.051a5.39 5.39 0 0 0 1.891-.354c-.186-3.012-2.809-4.121-4.662-5.685-16.487-13.909-30.573-29.999-43.187-47.416-3.547-4.898-7.281-9.727-9.607-15.872 1.614-8.338 5.928-15.873 9.561-23.638 1.989-4.252 4.004-8.614 7.832-12.327 4.952 7.209 7.703 15.11 11.799 22.276l12.32 21.683q6.704 11.075 14.034 21.767c4.709 6.846 9.688 13.517 14.77 20.093 5.07 6.561 10.415 12.909 15.707 19.432l-4.387 13.244c-2.34.641-4.724 1.665-7.186 1.912-22.889 2.292-45.355 1.036-66.889-8.11-16.07-6.825-30.272-16.495-43.497-27.77-24.174-20.608-43.006-45.405-58.265-73.141-22.565-41.015-37.412-84.77-46.317-130.562a356.52 356.52 0 0 1-5.826-89.778 462.08 462.08 0 0 1 28.308-132.719c21.678-58.739 52.852-112.096 91.242-161.38a690.25 690.25 0 0 1 70.93-78.042c11.162-10.531 22.928-20.42 34.305-30.728 3.542-3.209 7.409-4.378 12.181-4.44a367.45 367.45 0 0 1 59.264 4.298c17.695 2.649 35.266 6.125 52.887 9.263 1.524.271 3.235.317 4.403 2.93zm419.989 547.821-6.609-4.252c-8.281 5.21-15.342 11.719-23.282 16.987l-23.972 15.92c-7.852 4.925-15.881 9.588-23.994 14.074-8.392 4.64-16.892 9.106-25.505 13.322-8.596 4.208-17.39 8.012-25.51 11.724-14.674-4.781-38.853-21.985-47.945-33.853.957-2.811 3.757-2.994 5.975-3.909l44.333-18.259a603.51 603.51 0 0 0 103.257-58.713c10.726-7.529 21.036-15.65 31.552-23.478a30.83 30.83 0 0 1 2.935-1.669c2.513 1.563 5.249 3.127 7.842 4.9a372.68 372.68 0 0 0 104.194 50.08 243.57 243.57 0 0 0 42.596 9.197 31.194 31.194 0 0 0 3.542-4.03c14.311-22.904 25.832-47.018 32.516-73.348a176.44 176.44 0 0 0 4.757-58.992 131.973 131.973 0 0 0-8.177-35.405 13.19 13.19 0 0 0-1.529-2.363c-2.117-.031-1.521 1.708-1.686 2.632a275.42 275.42 0 0 1-21.239 67.513c-2.4 5.195-4.477 10.619-8.603 15.07-12.533 2.256-25.18 3.679-37.831 2.745-1.341-1.856-.422-3.181.459-4.527l12.578-19.283a394.05 394.05 0 0 0 39.782-82.82c.618-1.811 1.43-3.556 2.066-5.12 2.217-2.298 5.013-1.322 7.424-1.935l6.549-1.737a19.49 19.49 0 0 1 3.019 2.508c13.281 16.786 23.221 35.203 27.229 56.459a136.57 136.57 0 0 1 2.044 39.091 238.635 238.635 0 0 1-22.035 80.014 345.69 345.69 0 0 1-28.064 47.981 439.11 439.11 0 0 1-89.554 95.564c-36.831 28.982-78.077 49.767-122.503 64.411a496.297 496.297 0 0 1-93.47 20.777 564.453 564.453 0 0 1-98.63 3.79 682.92 682.92 0 0 1-125.151-17.725 829.6 829.6 0 0 1-82.703-24.506 19.727 19.727 0 0 1-11.323-9.476 420.08 420.08 0 0 1-21.458-42.866c-8.145-19.13-15.321-38.631-21.873-58.36-.679-2.046-2.125-4.025-1.052-6.988a49.22 49.22 0 0 1 4.408 3.132c11.956 10.629 24.134 20.972 37.034 30.465a463.1 463.1 0 0 0 181.241 79.629q18.831 3.651 37.947 5.433c23.262 2.207 46.56 3.747 69.918 3.022 21.722-.674 43.464-1.463 65.016-4.678 11.692-1.744 23.447-3.137 35.069-5.262 18.326-3.351 35.771-9.708 52.911-16.844a375.6 375.6 0 0 0 80.522-46.205 370.25 370.25 0 0 0 43.025-38.172 29.6 29.6 0 0 0 2.476-3.538c-8.428-3.369-16.783-5.096-25.374-7.274l-5.777 4.845-36.008 30.202c-2.924 2.424-6.199 4.424-8.869 6.306-13.061-2.173-25.444-7.801-31.746-14.43 13.697-12.755 28.629-24.25 41.033-38.412-4.684-4.053-4.684-4.053-13.257-6.63-1.475 1.174-3.301 2.414-4.88 3.915-21.579 20.525-44.617 39.332-67.977 57.756-2.246 1.772-4.681 3.305-6.816 4.8-14.149-2.218-40.143-13.901-50.495-22.616.859-2.805 3.628-3.315 5.722-4.477a406.6 406.6 0 0 0 58.248-38.737c7.213-5.816 14.026-12.13 20.966-18.279 1.414-1.251 2.586-2.777 4.712-5.096z" fill="#fefb02"/></svg>
